<?xml version="1.0" encoding="UTF-8"?>
<svg xmlns="http://www.w3.org/2000/svg" xmlns:xlink="http://www.w3.org/1999/xlink" viewBox="0 0 499.96 594.83">
  <defs>
    <style>
      .cls-1 {
        fill: #6e6e6e;
      }

      .cls-1, .cls-2, .cls-3, .cls-4, .cls-5, .cls-6, .cls-7, .cls-8, .cls-9, .cls-10, .cls-11, .cls-12, .cls-13, .cls-14, .cls-15, .cls-16, .cls-17, .cls-18, .cls-19, .cls-20, .cls-21 {
        fill-rule: evenodd;
      }

      .cls-22 {
        fill: #b3b3b3;
      }

      .cls-22, .cls-23, .cls-24, .cls-25, .cls-26, .cls-27, .cls-28, .cls-29, .cls-30, .cls-31, .cls-32, .cls-33, .cls-34, .cls-35, .cls-36, .cls-37, .cls-38, .cls-39, .cls-40, .cls-41, .cls-42, .cls-43, .cls-44, .cls-45, .cls-46, .cls-47, .cls-48 {
        opacity: .72;
      }

      .cls-2 {
        fill: url(#GradientFill_2);
      }

      .cls-3 {
        fill: url(#linear-gradient-7);
      }

      .cls-3, .cls-4, .cls-49, .cls-7, .cls-50, .cls-51, .cls-52 {
        mix-blend-mode: multiply;
      }

      .cls-3, .cls-7 {
        opacity: .16;
      }

      .cls-4 {
        fill: url(#linear-gradient-4);
      }

      .cls-23 {
        fill: #c8c8c8;
      }

      .cls-24 {
        fill: #d9d9d9;
      }

      .cls-25 {
        fill: #c3c3c3;
      }

      .cls-5, .cls-36 {
        fill: #fff;
      }

      .cls-26 {
        fill: #a2a2a2;
      }

      .cls-6 {
        fill: #c9c9c9;
      }

      .cls-53 {
        isolation: isolate;
      }

      .cls-49 {
        fill: url(#radial-gradient-2);
      }

      .cls-49, .cls-50 {
        opacity: .7;
      }

      .cls-27 {
        fill: #adadad;
      }

      .cls-7 {
        fill: url(#linear-gradient-6);
      }

      .cls-8 {
        fill: url(#linear-gradient-2);
      }

      .cls-28 {
        fill: #878787;
      }

      .cls-9 {
        fill: url(#linear-gradient);
      }

      .cls-29 {
        fill: #efefef;
      }

      .cls-30 {
        fill: #e9e9e9;
      }

      .cls-10 {
        fill: #e6e7e8;
      }

      .cls-31 {
        fill: #9d9d9d;
      }

      .cls-32 {
        fill: #979797;
      }

      .cls-11 {
        fill: url(#GradientFill_2-2);
      }

      .cls-33 {
        fill: #fafafa;
      }

      .cls-34 {
        fill: #a8a8a8;
      }

      .cls-50 {
        fill: url(#radial-gradient);
      }

      .cls-35 {
        fill: #d3d3d3;
      }

      .cls-51 {
        opacity: .35;
      }

      .cls-37 {
        fill: #7c7c7c;
      }

      .cls-38 {
        fill: #e4e4e4;
      }

      .cls-52 {
        opacity: .51;
      }

      .cls-39 {
        fill: #818181;
      }

      .cls-40 {
        fill: #bdbdbd;
      }

      .cls-12 {
        fill: url(#GradientFill_2-3);
      }

      .cls-13 {
        fill: gray;
      }

      .cls-41 {
        fill: #dedede;
      }

      .cls-42 {
        fill: #b8b8b8;
      }

      .cls-43 {
        fill: #767676;
      }

      .cls-14 {
        fill: #ededed;
      }

      .cls-54 {
        filter: url(#luminosity-noclip-2);
      }

      .cls-55 {
        mask: url(#mask-1);
      }

      .cls-56 {
        mask: url(#mask);
      }

      .cls-15 {
        fill: #dbdbdb;
      }

      .cls-16, .cls-47 {
        fill: #929292;
      }

      .cls-44 {
        fill: #8c8c8c;
      }

      .cls-17 {
        fill: #5c5c5c;
      }

      .cls-45 {
        fill: #717171;
      }

      .cls-18 {
        fill: url(#linear-gradient-5);
        opacity: .5;
      }

      .cls-46 {
        fill: #f4f4f4;
      }

      .cls-19 {
        fill: #a4a4a4;
      }

      .cls-48 {
        fill: #cecece;
      }

      .cls-20 {
        fill: url(#linear-gradient-3);
      }

      .cls-21 {
        fill: #b7b7b7;
      }
    </style>
    <linearGradient id="linear-gradient" x1="181.72" y1="78" x2="387.49" y2="383.62" gradientUnits="userSpaceOnUse">
      <stop offset=".1" stop-color="#ebebeb"/>
      <stop offset=".51" stop-color="#e3e3e3"/>
      <stop offset=".94" stop-color="#b3b3b3"/>
    </linearGradient>
    <linearGradient id="linear-gradient-2" x1="386.36" y1="275.93" x2="496.1" y2="275.93" gradientUnits="userSpaceOnUse">
      <stop offset="0" stop-color="#ebebeb"/>
      <stop offset=".5" stop-color="#e4e4e4"/>
      <stop offset=".58" stop-color="#e3e3e3"/>
      <stop offset="1" stop-color="#ebebeb"/>
    </linearGradient>
    <radialGradient id="radial-gradient" cx="303" cy="1902.39" fx="303" fy="1902.39" r="103.61" gradientTransform="translate(-105.56 -1785.46) scale(1.14 1.16)" gradientUnits="userSpaceOnUse">
      <stop offset=".04" stop-color="#000"/>
      <stop offset=".12" stop-color="#0a0a0a"/>
      <stop offset=".26" stop-color="#262626"/>
      <stop offset=".45" stop-color="#535353"/>
      <stop offset=".67" stop-color="#929292"/>
      <stop offset=".91" stop-color="#e1e1e1"/>
      <stop offset="1" stop-color="#fff"/>
    </radialGradient>
    <linearGradient id="GradientFill_2" data-name="GradientFill 2" x1="159.17" y1="394.41" x2="201.61" y2="394.41" gradientUnits="userSpaceOnUse">
      <stop offset="0" stop-color="#000"/>
      <stop offset=".21" stop-color="#58595b"/>
      <stop offset=".4" stop-color="#bcbec0"/>
      <stop offset=".63" stop-color="#bcbec0"/>
      <stop offset="1" stop-color="#000"/>
    </linearGradient>
    <linearGradient id="linear-gradient-3" x1="195.75" y1="248.21" x2="169.55" y2="497.53" gradientUnits="userSpaceOnUse">
      <stop offset="0" stop-color="#939598"/>
      <stop offset=".21" stop-color="#eaeced"/>
      <stop offset=".45" stop-color="#bcbec0"/>
      <stop offset=".65" stop-color="#eeefef"/>
      <stop offset="1" stop-color="#808285"/>
    </linearGradient>
    <linearGradient id="GradientFill_2-2" data-name="GradientFill 2" x1="95.1" y1="267.97" x2="244.16" y2="488.96" xlink:href="#GradientFill_2"/>
    <filter id="luminosity-noclip-2" data-name="luminosity-noclip" x="38.84" y="252.67" width="233.41" height="185.86" color-interpolation-filters="sRGB" filterUnits="userSpaceOnUse">
      <feFlood flood-color="#fff" result="bg"/>
      <feBlend in="SourceGraphic" in2="bg"/>
    </filter>
    <filter id="luminosity-noclip-3" x="8485.6" y="-8480.66" width="-32766" height="32766" color-interpolation-filters="sRGB" filterUnits="userSpaceOnUse">
      <feFlood flood-color="#fff" result="bg"/>
      <feBlend in="SourceGraphic" in2="bg"/>
    </filter>
    <mask id="mask-1" x="8485.6" y="-8480.66" width="-32766" height="32766" maskUnits="userSpaceOnUse"/>
    <linearGradient id="linear-gradient-4" x1="107.91" y1="275.39" x2="210.03" y2="408.03" gradientUnits="userSpaceOnUse">
      <stop offset="0" stop-color="#fff"/>
      <stop offset="1" stop-color="#1a1a1a"/>
    </linearGradient>
    <mask id="mask" x="38.84" y="252.67" width="233.41" height="185.86" maskUnits="userSpaceOnUse">
      <g class="cls-54">
        <g class="cls-55">
          <path class="cls-4" d="M214.09,354.6c1.44,1.22,2.8,2.51,4.08,3.84,11.53,12.09,16.24,28.62,13.71,44.33,24.86-23.65,40.37-57.06,40.37-94.09,0-8.23-.78-16.28-2.24-24.09-59.73-48.78-147.77-40.87-197.8,18.22-20.84,24.62-31.83,54.28-33.37,84.18,23.71,31.3,61.27,51.53,103.57,51.53,3.23,0,6.43-.12,9.6-.35-.2-.13-.4-.25-.59-.39-1.62-1.09-3.2-2.28-4.73-3.57-21.99-18.61-24.72-51.53-6.11-73.51,18.61-21.99,51.53-24.72,73.51-6.11Z"/>
        </g>
      </g>
    </mask>
    <linearGradient id="linear-gradient-5" x1="107.91" y1="275.39" x2="210.03" y2="408.03" gradientUnits="userSpaceOnUse">
      <stop offset="0" stop-color="#fff"/>
      <stop offset="1" stop-color="#fff"/>
    </linearGradient>
    <linearGradient id="GradientFill_2-3" data-name="GradientFill 2" x1="128.36" y1="394.41" x2="232.41" y2="394.41" xlink:href="#GradientFill_2"/>
    <linearGradient id="linear-gradient-6" x1="436.41" y1="540.63" x2="445.24" y2="576.82" gradientUnits="userSpaceOnUse">
      <stop offset="0" stop-color="#555"/>
      <stop offset=".06" stop-color="#585959"/>
      <stop offset=".13" stop-color="#646565"/>
      <stop offset=".2" stop-color="#77797b"/>
      <stop offset=".22" stop-color="#7d7f81"/>
      <stop offset=".28" stop-color="#8e8f91"/>
      <stop offset=".43" stop-color="#b6b7b8"/>
      <stop offset=".59" stop-color="#d6d6d7"/>
      <stop offset=".74" stop-color="#ececed"/>
      <stop offset=".88" stop-color="#fafafa"/>
      <stop offset="1" stop-color="#fff"/>
    </linearGradient>
    <linearGradient id="linear-gradient-7" x1="292.86" y1="515.08" x2="279.76" y2="548.34" gradientUnits="userSpaceOnUse">
      <stop offset=".01" stop-color="#555"/>
      <stop offset=".14" stop-color="#626262"/>
      <stop offset=".36" stop-color="#848484"/>
      <stop offset=".67" stop-color="#bcbcbc"/>
      <stop offset="1" stop-color="#fff"/>
    </linearGradient>
    <radialGradient id="radial-gradient-2" cx="208.94" cy="1734.26" fx="208.94" fy="1734.26" r="123.11" gradientTransform="translate(-120.45 102.62) scale(1.4 .24)" gradientUnits="userSpaceOnUse">
      <stop offset=".04" stop-color="#000"/>
      <stop offset=".26" stop-color="#434343"/>
      <stop offset=".53" stop-color="#939393"/>
      <stop offset=".75" stop-color="#cdcdcd"/>
      <stop offset=".91" stop-color="#f1f1f1"/>
      <stop offset="1" stop-color="#fff"/>
    </radialGradient>
  </defs>
  <g class="cls-53">
    <g id="Layer_2" data-name="Layer 2">
      <g id="_Слой_1" data-name="Слой 1">
        <g class="cls-51">
          <polygon class="cls-36" points="387.79 572.77 83.79 459.46 191.7 383.92 488.74 530.22 387.79 572.77"/>
          <polygon class="cls-33" points="387.78 572.12 89.74 460.94 195.2 386.04 489.08 530.16 387.78 572.12"/>
          <polygon class="cls-46" points="387.77 571.47 95.69 462.42 198.69 388.17 489.42 530.1 387.77 571.47"/>
          <polygon class="cls-29" points="387.76 570.83 101.64 463.91 202.19 390.29 489.76 530.04 387.76 570.83"/>
          <polygon class="cls-30" points="387.75 570.18 107.59 465.39 205.68 392.41 490.11 529.98 387.75 570.18"/>
          <polygon class="cls-38" points="387.74 569.53 113.54 466.87 209.18 394.54 490.45 529.92 387.74 569.53"/>
          <polygon class="cls-41" points="387.73 568.89 119.48 468.35 212.67 396.66 490.79 529.85 387.73 568.89"/>
          <polygon class="cls-24" points="387.72 568.24 125.43 469.84 216.16 398.78 491.14 529.79 387.72 568.24"/>
          <polygon class="cls-35" points="387.71 567.59 131.38 471.32 219.66 400.9 491.48 529.73 387.71 567.59"/>
          <polygon class="cls-48" points="387.7 566.95 137.33 472.8 223.15 403.03 491.82 529.67 387.7 566.95"/>
          <polygon class="cls-23" points="387.69 566.3 143.28 474.28 226.65 405.15 492.16 529.61 387.69 566.3"/>
          <polygon class="cls-25" points="387.68 565.65 149.23 475.77 230.14 407.27 492.51 529.55 387.68 565.65"/>
          <polygon class="cls-40" points="387.68 565.01 155.18 477.25 233.64 409.4 492.85 529.49 387.68 565.01"/>
          <polygon class="cls-42" points="387.67 564.36 161.13 478.73 237.13 411.52 493.19 529.43 387.67 564.36"/>
          <polygon class="cls-22" points="387.66 563.71 167.08 480.21 240.63 413.64 493.54 529.37 387.66 563.71"/>
          <polygon class="cls-27" points="387.65 563.07 173.03 481.7 244.12 415.77 493.88 529.31 387.65 563.07"/>
          <polygon class="cls-34" points="387.64 562.42 178.97 483.18 247.62 417.89 494.22 529.25 387.64 562.42"/>
          <polygon class="cls-26" points="387.63 561.77 184.92 484.66 251.11 420.01 494.56 529.19 387.63 561.77"/>
          <polygon class="cls-31" points="387.62 561.13 190.87 486.14 254.6 422.13 494.91 529.13 387.62 561.13"/>
          <polygon class="cls-32" points="387.61 560.48 196.82 487.63 258.1 424.26 495.25 529.07 387.61 560.48"/>
          <polygon class="cls-47" points="387.6 559.83 202.77 489.11 261.59 426.38 495.59 529.01 387.6 559.83"/>
          <polygon class="cls-44" points="387.59 559.19 208.72 490.59 265.09 428.5 495.94 528.95 387.59 559.19"/>
          <polygon class="cls-28" points="387.58 558.54 214.67 492.07 268.58 430.63 496.28 528.89 387.58 558.54"/>
          <polygon class="cls-39" points="387.57 557.89 220.62 493.56 272.08 432.75 496.62 528.83 387.57 557.89"/>
          <polygon class="cls-37" points="387.56 557.25 226.57 495.04 275.57 434.87 496.96 528.77 387.56 557.25"/>
          <polygon class="cls-43" points="387.55 556.6 232.51 496.52 279.07 437 497.31 528.71 387.55 556.6"/>
          <polygon class="cls-45" points="387.54 555.95 238.46 498 282.56 439.12 497.65 528.65 387.54 555.95"/>
        </g>
        <g class="cls-52">
          <polygon class="cls-5" points="386.36 561.97 499.96 529.3 261.26 430.71 178.11 464.18 386.36 561.97"/>
          <polygon class="cls-14" points="386.52 561.04 499.7 529.22 261.56 431.05 178.72 464.4 386.52 561.04"/>
          <polygon class="cls-15" points="386.68 560.1 499.45 529.15 261.86 431.4 179.33 464.62 386.68 560.1"/>
          <polygon class="cls-6" points="386.84 559.16 499.19 529.08 262.16 431.74 179.94 464.84 386.84 559.16"/>
          <polygon class="cls-21" points="387 558.23 498.93 529.01 262.46 432.09 180.55 465.06 387 558.23"/>
          <polygon class="cls-19" points="387.16 557.29 498.68 528.93 262.77 432.43 181.16 465.29 387.16 557.29"/>
          <polygon class="cls-16" points="387.32 556.35 498.42 528.86 263.07 432.78 181.77 465.51 387.32 556.35"/>
          <polygon class="cls-13" points="387.48 555.42 498.16 528.79 263.37 433.12 182.38 465.73 387.48 555.42"/>
          <polygon class="cls-1" points="387.64 554.48 497.91 528.72 263.67 433.47 182.99 465.95 387.64 554.48"/>
          <polygon class="cls-17" points="387.8 553.54 497.65 528.65 263.97 433.81 183.6 466.17 387.8 553.54"/>
        </g>
        <polygon class="cls-9" points="184.74 37.21 386.36 0 387.79 551.87 186.04 466.35 184.74 37.21"/>
        <polygon class="cls-8" points="386.36 0 496.1 10.32 495.36 528.58 387.79 551.87 386.36 0"/>
        <path class="cls-50" d="M356.08,419.03c0,66.31-52.66,120.08-117.61,120.08s-117.61-53.77-117.61-120.08,52.66-120.09,117.61-120.09,117.61,53.77,117.61,120.09Z"/>
        <path class="cls-10" d="M226.71,394.41c0-23.64-17.71-43.15-40.59-45.97-1.88-.23-3.79-.35-5.74-.35-25.58,0-46.32,20.74-46.32,46.32s20.74,46.32,46.32,46.32c2.04,0,4.04-.13,6.01-.39,22.74-2.95,40.31-22.39,40.31-45.94h0Zm-63.39,0c0-9.42,7.64-17.07,17.07-17.07,2.05,0,4.01,.36,5.83,1.02,6.56,2.38,11.24,8.67,11.24,16.05s-4.64,13.6-11.14,16.01c-1.84,.68-3.84,1.05-5.92,1.05-9.42,0-17.07-7.64-17.07-17.07Z"/>
        <path class="cls-2" d="M180.39,373.19c5.86,0,11.16,2.37,15,6.21,3.84,3.84,6.22,9.15,6.22,15s-2.38,11.16-6.22,15c-3.84,3.84-9.14,6.22-15,6.22s-11.16-2.38-15-6.22c-3.84-3.84-6.21-9.15-6.21-15s2.38-11.16,6.21-15c3.84-3.84,9.15-6.21,15-6.21h0Zm13.36,7.86c-3.42-3.42-8.14-5.53-13.36-5.53s-9.94,2.12-13.36,5.53c-3.42,3.42-5.53,8.14-5.53,13.36s2.11,9.94,5.53,13.36c3.42,3.42,8.14,5.53,13.36,5.53s9.94-2.12,13.36-5.53c3.42-3.42,5.53-8.14,5.53-13.36s-2.12-9.94-5.53-13.36Z"/>
        <g>
          <g>
            <path class="cls-20" d="M214.09,354.6c1.44,1.22,2.8,2.51,4.08,3.84,18.17,19.05,19.42,49.13,2.02,69.67-17.32,20.46-47.03,24.25-68.79,9.67-1.62-1.09-3.2-2.28-4.73-3.57-21.99-18.61-24.72-51.53-6.11-73.51,18.61-21.99,51.53-24.72,73.51-6.11h0Zm57.89-68.37c-59.75-50.58-149.19-43.16-199.77,16.59-50.58,59.75-43.16,149.19,16.59,199.78,25.41,21.52,56.2,32.54,87.08,33.5,41.72,1.3,83.62-15.75,112.69-50.09,49.43-58.39,43.47-145.13-12.59-196.26-1.31-1.19-2.64-2.37-4-3.52Z"/>
            <path class="cls-11" d="M180.39,345.2c1.79,0,3.55,.09,5.28,.28,24.7,2.64,43.93,23.54,43.93,48.94s-19.08,46.13-43.64,48.9c-1.83,.21-3.69,.31-5.58,.31-27.18,0-49.22-22.04-49.22-49.22s22.03-49.22,49.22-49.22h0Zm0-84.53c-73.87,0-133.75,59.88-133.75,133.75s59.88,133.75,133.75,133.75c31.42,0,60.31-10.83,83.13-28.97,30.84-24.5,50.61-62.33,50.61-104.78,0-72.18-57.18-131.01-128.72-133.65-1.67-.06-3.34-.09-5.03-.09Z"/>
            <g class="cls-56">
              <path class="cls-18" d="M214.09,354.6c1.44,1.22,2.8,2.51,4.08,3.84,11.53,12.09,16.24,28.62,13.71,44.33,24.86-23.65,40.37-57.06,40.37-94.09,0-8.23-.78-16.28-2.24-24.09-59.73-48.78-147.77-40.87-197.8,18.22-20.84,24.62-31.83,54.28-33.37,84.18,23.71,31.3,61.27,51.53,103.57,51.53,3.23,0,6.43-.12,9.6-.35-.2-.13-.4-.25-.59-.39-1.62-1.09-3.2-2.28-4.73-3.57-21.99-18.61-24.72-51.53-6.11-73.51,18.61-21.99,51.53-24.72,73.51-6.11Z"/>
            </g>
          </g>
          <path class="cls-12" d="M232.41,394.41c0-28.73-23.29-52.03-52.03-52.03s-52.03,23.29-52.03,52.03,23.29,52.03,52.03,52.03,52.03-23.29,52.03-52.03h0Zm-52.03-45.27c25,0,45.27,20.27,45.27,45.27s-20.27,45.28-45.27,45.28-45.27-20.27-45.27-45.28,20.27-45.27,45.27-45.27Z"/>
        </g>
        <polygon class="cls-7" points="387.79 594.83 387.79 551.87 495.33 528.65 495.33 560.95 387.79 594.83"/>
        <polygon class="cls-3" points="184.74 507.25 387.76 594.09 387.79 551.87 186.04 466.35 184.74 507.25"/>
        <path class="cls-49" d="M345.42,524.57c0,16.54-77.32,29.96-172.71,29.96S0,541.11,0,524.57s77.33-29.96,172.71-29.96,172.71,13.41,172.71,29.96Z"/>
      </g>
    </g>
  </g>
</svg>