<?xml version="1.0" encoding="UTF-8"?>
<svg id="Layer_2" data-name="Layer 2" xmlns="http://www.w3.org/2000/svg" viewBox="0 0 522.71 203.61">
  <defs>
    <style>
      .cls-1 {
        opacity: .5;
      }

      .cls-2 {
        fill: gray;
      }

      .cls-3 {
        fill: #c2000b;
      }

      .cls-4 {
        fill: none;
      }
    </style>
  </defs>
  <g id="Layer_1-2" data-name="Layer 1">
    <g class="cls-1">
      <path class="cls-2" d="M217.98,160.43c-15.37-3.58-30.42-14.79-43.24-41.45-1.27-2.63-2.52-5.4-3.73-8.07-8.22-18.14-16.73-36.89-38.84-38.41-30.41-2.09-54.45-7.66-73.49-17.03C34.3,43.47,18.06,24.89,10.42,.24l.76-.24c13.5,43.57,53.09,67.03,121.03,71.7,22.6,1.55,31.19,20.53,39.51,38.88,1.21,2.67,2.46,5.43,3.72,8.05,25.77,53.59,60.71,44.03,88.78,36.36,6.01-1.64,11.69-3.2,16.9-4.03,58.82-18.56,86.8,3.16,113.87,24.16,30.11,23.37,58.56,45.44,127.3,5.95l.4,.69c-69.21,39.76-97.86,17.53-128.19-6.01-26.91-20.88-54.73-42.47-113.2-24.02-5.23,.84-10.89,2.38-16.88,4.02-14.41,3.94-30.6,8.36-46.47,4.67Z"/>
      <path class="cls-2" d="M225.42,163.44c-14.87-3.47-29.54-14.28-42.31-39.87-1.72-3.46-3.39-7.08-4.99-10.59-8.45-18.43-17.18-37.48-38.75-39.22-1.73-.14-3.49-.28-5.26-.4-23.79-1.62-46.85-3.6-67.59-9.91C47.19,57.58,21.6,43.69,9.48,10.91l.68-.25c12.01,32.5,37.39,46.28,56.57,52.11,20.66,6.29,43.69,8.26,67.43,9.88,1.78,.12,3.53,.25,5.27,.4,21.99,1.77,30.81,21.02,39.34,39.64,1.6,3.5,3.26,7.12,4.98,10.57,25.91,51.92,59.77,42.38,86.98,34.71,5.47-1.54,10.64-3,15.5-3.91,46.55-14.96,73.89-3.96,96.5,10.14,4.95,3.09,9.74,6.38,14.38,9.56,29.86,20.5,58.06,39.86,122.33,1.34l.37,.62c-36,21.58-60.76,25.1-80.82,20.42-15.97-3.72-28.96-12.64-42.29-21.79-4.63-3.18-9.42-6.47-14.36-9.55-22.46-14.02-49.63-24.94-95.94-10.06-4.87,.91-10.02,2.37-15.48,3.9-14.07,3.96-29.9,8.42-45.51,4.78Z"/>
      <path class="cls-2" d="M232.77,166.48c-14.38-3.35-28.65-13.78-41.29-38.31-2.22-4.31-4.29-8.8-6.3-13.15-9.01-19.54-17.53-37.99-38.6-39.98-1.95-.18-3.75-.32-5.49-.41-6.85-.37-13.73-.62-20.38-.86-17.48-.63-33.99-1.23-49.64-3.88-28.6-4.83-51.38-22.45-62.53-48.31l.6-.26c11.22,26.03,33.26,43.05,62.04,47.92,15.61,2.64,32.1,3.24,49.56,3.87,6.66,.24,13.54,.49,20.39,.86,1.75,.09,3.55,.23,5.51,.41,21.45,2.03,30.04,20.65,39.13,40.36,2,4.34,4.07,8.83,6.29,13.12,11.56,22.42,25.36,34.96,42.2,38.35,14.68,2.95,29.74-1.44,43.02-5.31,4.93-1.44,9.59-2.8,14.06-3.76,44.21-14.49,70.98-5.3,93.31,6.8,4.97,2.69,9.79,5.57,14.45,8.36,29.62,17.7,57.6,34.43,117.47-3.17l.35,.55c-27.48,17.25-49.82,24.42-70.29,22.55-18.24-1.67-32.63-10.27-47.86-19.37-4.65-2.78-9.47-5.66-14.43-8.35-22.21-12.03-48.82-21.18-92.83-6.75-4.48,.97-9.12,2.32-14.04,3.76-13.77,4.02-29.29,8.54-44.68,4.95Z"/>
      <path class="cls-3" d="M239.97,169.67c-15.76-3.67-28.89-15.77-40.12-36.91-2.76-5.2-5.26-10.6-7.67-15.82-9.14-19.77-17.76-38.44-38.39-40.64-2-.21-3.87-.35-5.72-.42-12.74-.53-25.28-.14-37.41,.24-12.23,.38-23.78,.74-35.06,.19-29.66-1.43-55.08-17.9-68.01-44.06l.52-.26c12.83,25.96,38.07,42.31,67.52,43.74,11.26,.54,22.8,.19,35.01-.19,12.14-.38,24.7-.77,37.45-.24,1.86,.07,3.75,.21,5.76,.43,20.94,2.23,29.65,21.05,38.85,40.97,2.41,5.21,4.9,10.6,7.65,15.79,25.9,48.78,56.5,39.5,83.51,31.31,4.38-1.33,8.51-2.58,12.56-3.57,42.01-14.09,68.15-6.66,90.13,3.47,4.94,2.28,9.73,4.72,14.36,7.07,30.69,15.63,57.2,29.13,112.78-7.6l.32,.48c-25.51,16.86-46.57,24.31-66.26,23.44-17.59-.78-31.92-8.08-47.1-15.81-4.63-2.36-9.41-4.79-14.34-7.06-21.88-10.08-47.88-17.47-89.73-3.44-4.05,.99-8.18,2.24-12.55,3.57-13.06,3.96-27.87,8.45-42.31,5.68-.59-.11-1.17-.24-1.76-.37Z"/>
      <path class="cls-2" d="M247.12,172.8c-13.33-3.11-26.56-12.85-38.89-35.45-3.34-6.12-6.26-12.45-9.09-18.56-9.62-20.83-17.93-38.83-38.13-41.21-2.04-.24-3.99-.39-5.95-.44-16.77-.49-32.99,1.33-48.68,3.09-9.1,1.02-17.69,1.98-26.24,2.5-15.01,.91-29.7-2.24-42.5-9.13-12.92-6.95-23.63-17.56-30.98-30.68l.44-.25c14.68,26.24,42.65,41.39,73,39.55,8.54-.52,17.13-1.48,26.22-2.5,15.71-1.76,31.95-3.58,48.75-3.09,1.98,.05,3.94,.2,6,.44,20.47,2.43,29.24,21.41,38.53,41.5,2.82,6.11,5.74,12.42,9.07,18.53,25.81,47.29,55.59,37.86,81.87,29.54,3.81-1.21,7.41-2.35,10.99-3.32,39.98-13.75,65.42-8.06,86.94,.13,4.83,1.84,9.51,3.81,14.04,5.72,30.54,12.87,56.91,23.99,108.31-11.97l.29,.42c-35.23,24.65-58.77,27.28-79.91,22.35-9.84-2.29-19.15-6.22-28.89-10.32-4.52-1.91-9.2-3.88-14.02-5.72-21.44-8.16-46.77-13.83-86.61-.12-3.59,.98-7.18,2.12-10.99,3.32-13.91,4.4-28.81,9.12-43.58,5.67Z"/>
      <path class="cls-2" d="M254.32,175.95c-14.44-3.37-26.81-14.52-37.72-34.01-3.97-7.08-7.31-14.35-10.55-21.38-9.67-21.01-18.03-39.15-37.82-41.71-2.07-.27-4.15-.42-6.19-.45-19.62-.36-38.33,3.32-56.43,6.88-7.23,1.42-14.07,2.77-20.96,3.87-31.76,5.08-62.01-8.55-78.94-35.56l.37-.23c16.83,26.86,46.91,40.41,78.5,35.36,6.88-1.1,13.71-2.44,20.94-3.86,18.12-3.56,36.86-7.25,56.52-6.89,2.05,.03,4.15,.18,6.24,.45,20.03,2.59,28.43,20.84,38.16,41.96,3.23,7.02,6.58,14.29,10.53,21.35,11.49,20.5,24.55,31.72,39.96,34.3,13.59,2.28,27.2-2.24,40.36-6.61,3.08-1.02,6.26-2.08,9.34-3.01,30.85-10.92,55.12-11.85,83.76-3.2,4.61,1.39,9.08,2.89,13.41,4.33,30.48,10.19,56.81,18.98,104.15-16.31l.26,.35c-47.52,35.43-73.95,26.6-104.55,16.38-4.33-1.45-8.8-2.94-13.4-4.33-28.55-8.62-52.74-7.69-83.5,3.2-3.08,.93-6.26,1.98-9.33,3.01-13.21,4.39-26.87,8.93-40.57,6.63-.86-.14-1.7-.31-2.55-.51Z"/>
      <path class="cls-2" d="M261.35,179.13c-12.3-2.87-24.51-11.94-36.39-32.6-4.63-8.07-8.41-16.3-12.06-24.27-9.69-21.15-18.06-39.42-37.47-42.14-2.12-.3-4.28-.45-6.43-.47-21.71-.17-42.2,5.55-62.01,11.09-5.87,1.64-11.95,3.34-17.85,4.82-16.32,4.08-32.96,3.15-48.11-2.7-14.64-5.65-27.18-15.55-36.28-28.62l.3-.21c18.79,27,51.76,39.24,84.01,31.17,5.9-1.47,11.97-3.17,17.84-4.81,19.84-5.54,40.35-11.28,62.11-11.1,2.16,.01,4.34,.17,6.47,.47,19.61,2.75,28.01,21.1,37.75,42.35,3.65,7.96,7.41,16.19,12.04,24.24,25.53,44.44,52.66,34.94,78.9,25.75,2.49-.87,5.06-1.77,7.57-2.6,30.58-11.19,54.68-13.13,80.59-6.53,3.17,.81,6.29,1.65,9.31,2.46,32.76,8.78,58.65,15.72,103.45-20.17l.23,.28c-20.61,16.51-38.61,25.04-56.67,26.85-16.31,1.64-31.26-2.37-47.1-6.62-3.02-.81-6.14-1.65-9.31-2.45-25.83-6.58-49.87-4.64-80.38,6.52-2.51,.83-5.08,1.73-7.57,2.6-14.18,4.97-28.63,10.02-42.94,6.69Z"/>
      <path class="cls-2" d="M268.41,182.27c-5.62-1.31-10.84-3.88-15.87-7.81-6.8-5.31-13.08-12.95-19.21-23.34-5.35-9.08-9.55-18.31-13.6-27.23-9.67-21.27-18.03-39.63-37.07-42.5-2.17-.33-4.42-.49-6.67-.48-23.32,.04-45.14,7.86-66.23,15.43-5.29,1.9-10.76,3.86-16.11,5.64-16.97,5.65-34.57,5.83-50.9,.53-15.47-5.02-28.93-14.57-38.94-27.61l.23-.18c21.08,27.47,56.22,38.07,89.52,26.98,5.34-1.78,10.81-3.74,16.1-5.64,21.12-7.57,42.95-15.4,66.33-15.44,2.26,0,4.52,.15,6.71,.48,19.21,2.88,27.59,21.32,37.29,42.67,4.05,8.92,8.25,18.13,13.59,27.2,11.39,19.34,23.97,29.7,38.43,31.67,12.93,1.76,26.27-3.19,39.17-7.97,1.86-.69,3.78-1.4,5.67-2.08,28.26-10.74,51.41-13.69,77.41-9.85,3.63,.54,7.19,1.11,10.64,1.67,32.22,5.23,57.67,9.36,97.33-25.12l.19,.22c-18.24,15.85-34.7,24.58-51.8,27.48-15.46,2.62-30.18,.23-45.77-2.3-3.44-.56-7.01-1.14-10.64-1.67-25.94-3.83-49.05-.88-77.26,9.84-1.89,.68-3.81,1.39-5.67,2.08-12.93,4.8-26.31,9.76-39.31,7.99-1.2-.16-2.39-.38-3.56-.65Z"/>
      <path class="cls-2" d="M275.46,185.46c-5.24-1.22-10.13-3.61-14.87-7.23-6.62-5.07-12.79-12.43-18.89-22.52-6.12-10.13-10.73-20.36-15.19-30.26-9.63-21.35-17.95-39.8-36.64-42.79-2.23-.36-4.55-.52-6.91-.49-24.63,.26-47.49,10.17-69.59,19.75-5,2.16-10.16,4.4-15.23,6.48-17.61,7.2-36.17,8.5-53.68,3.77-16.05-4.34-30.82-13.79-41.6-26.61l.17-.14c23.43,27.87,60.73,36.81,95.03,22.78,5.07-2.07,10.23-4.31,15.23-6.48,22.12-9.59,45-19.5,69.67-19.76,2.37-.03,4.71,.14,6.94,.5,8.63,1.38,15.55,5.98,21.79,14.45,5.62,7.63,10.18,17.75,15.01,28.46,4.46,9.89,9.07,20.12,15.18,30.24,11.51,19.05,23.47,28.69,37.66,30.36,12.62,1.48,25.34-3.55,38.81-8.86,1.2-.47,2.4-.95,3.6-1.42,27.64-10.99,49.84-14.93,74.23-13.18,2.73,.2,5.43,.41,8.04,.61,33,2.6,59.07,4.65,95.13-29.79l.15,.16c-36.14,34.51-62.25,32.46-95.3,29.85-2.61-.21-5.31-.42-8.03-.61-24.35-1.75-46.52,2.19-74.14,13.16-1.21,.47-2.4,.94-3.6,1.42-13.49,5.33-26.24,10.36-38.92,8.87-1.38-.16-2.73-.4-4.06-.71Z"/>
      <path class="cls-2" d="M282.51,188.66c-11.82-2.76-22.23-11.9-32.44-28.37-6.94-11.2-12.19-22.97-16.83-33.36-9.95-22.28-17.8-39.89-36.15-43.01-2.28-.39-4.68-.56-7.15-.51-25.74,.49-49.45,12.44-72.38,23.99-4.89,2.46-9.94,5.01-14.93,7.4-18.24,8.74-37.76,11.16-56.44,7.01-.27-.06-.54-.12-.81-.18-16.53-3.85-31.94-12.87-43.47-25.44l.11-.1c19.62,21.4,57.72,39.1,100.55,18.58,4.98-2.39,10.04-4.93,14.92-7.4,22.95-11.56,46.68-23.51,72.45-24,2.48-.05,4.89,.12,7.18,.51,8.46,1.44,15.25,6.05,21.38,14.51,5.54,7.64,10.07,17.81,14.88,28.58,4.63,10.38,9.89,22.15,16.82,33.34,11.47,18.52,23.19,27.74,36.89,29.04,12.33,1.17,25.12-4.23,38.65-9.94l1.33-.56c20.33-8.52,43.01-16.41,71.06-16.5,1.37,0,2.73,0,4.08,0,34.44-.05,61.64-.1,94.28-34.91l.1,.1c-15.03,16.03-29.78,25.73-46.42,30.53-15.17,4.37-30.37,4.4-47.97,4.43-1.35,0-2.71,0-4.08,0-28.03,.09-50.69,7.97-71,16.49l-1.33,.56c-13.55,5.72-26.35,11.12-38.72,9.95-1.54-.15-3.07-.39-4.56-.74Z"/>
      <path class="cls-2" d="M289.49,191.87c-4.56-1.06-8.87-3.13-13.08-6.27-6.13-4.57-12.01-11.34-17.97-20.72-7.82-12.29-13.49-25.17-18.5-36.53-4.76-10.8-9.26-21-14.7-28.63-6.01-8.43-12.66-13.04-20.93-14.51-2.32-.42-4.81-.59-7.39-.52-26.71,.72-51.16,14.65-74.8,28.13-4.91,2.8-9.98,5.69-15,8.42-7.55,4.11-15.35,7.15-23.27,9.09,7.58-1.88,15.35-4.86,23.23-9.15,5.02-2.73,10.09-5.62,15-8.42,11.84-6.74,24.07-13.72,36.43-18.95,6.65-2.81,12.81-4.91,18.83-6.42,6.75-1.69,13.16-2.6,19.58-2.77,2.59-.07,5.09,.1,7.41,.52,8.28,1.48,14.95,6.1,20.97,14.54,5.45,7.64,9.95,17.84,14.71,28.65,5.01,11.36,10.69,24.24,18.5,36.52,11.31,17.79,22.63,26.59,35.61,27.68,12.2,1.03,25.35-4.92,38.07-10.67,20.79-9.29,41.63-17.8,67.89-19.82,11.93-.92,23.02-1.77,33.59-3.81-11.02,2.15-22.43,3.03-33.59,3.89-26.25,2.02-47.08,10.53-67.87,19.81-7.47,3.38-13.67,6.12-19.8,8.07-7.02,2.24-12.84,3.07-18.3,2.61-1.57-.13-3.11-.37-4.61-.73ZM43.54,130.57c-7.43-1.73-14.63-4.44-21.45-8.08-7.84-4.18-14.94-9.44-21.13-15.66l.05-.05c10.4,10.45,25.31,19.76,42.91,23.86,.76,.18,1.52,.34,2.28,.5-.89-.18-1.78-.37-2.66-.58Zm402.41,24.6c16.49-5.12,31.94-14.63,47.69-33.8l.06,.05c-13.33,16.22-27.27,26.54-43.86,32.46-1.28,.46-2.58,.89-3.88,1.29Z"/>
      <path class="cls-4" d="M0,117.48c25.84,24,69.36,35.69,111.59,10.16,30.27-18.3,59.07-40.57,92.3-41.71,34.9-1.2,36.58,43.24,62.92,83.53,38.33,58.64,65.28,2.82,135.22-7.67,36.74-5.51,64.96-12.33,88.75-46.4"/>
    </g>
  </g>
</svg>